<svg xmlns="http://www.w3.org/2000/svg" xmlns:xlink="http://www.w3.org/1999/xlink" width="500" zoomAndPan="magnify" viewBox="0 0 375 374.999991" height="500" preserveAspectRatio="xMidYMid meet" version="1.0"><defs><g/><clipPath id="db00bfbee1"><path d="M 187.5 37.5 L 311 37.5 L 311 332 L 187.5 332 Z M 187.5 37.5 " clip-rule="nonzero"/></clipPath></defs><g clip-path="url(#db00bfbee1)"><path fill="#000000" d="M 190.433594 330.472656 C 190.441406 330.667969 190.40625 330.855469 190.335938 331.035156 C 190.265625 331.214844 190.160156 331.375 190.023438 331.515625 C 189.890625 331.652344 189.730469 331.761719 189.554688 331.835938 C 189.375 331.910156 189.1875 331.949219 188.992188 331.949219 C 188.796875 331.949219 188.613281 331.910156 188.433594 331.835938 C 188.253906 331.761719 188.097656 331.652344 187.960938 331.515625 C 187.824219 331.375 187.722656 331.214844 187.652344 331.035156 C 187.578125 330.855469 187.546875 330.667969 187.550781 330.472656 L 187.550781 39.378906 C 187.546875 39.1875 187.578125 39 187.652344 38.816406 C 187.722656 38.636719 187.824219 38.476562 187.960938 38.339844 C 188.097656 38.199219 188.253906 38.09375 188.433594 38.015625 C 188.613281 37.941406 188.796875 37.902344 188.992188 37.902344 C 189.1875 37.902344 189.375 37.941406 189.554688 38.015625 C 189.730469 38.09375 189.890625 38.199219 190.023438 38.339844 C 190.160156 38.476562 190.265625 38.636719 190.335938 38.816406 C 190.40625 39 190.441406 39.1875 190.433594 39.378906 L 190.433594 87.957031 L 231.554688 87.957031 C 231.835938 87.957031 232.09375 88.03125 232.332031 88.183594 C 232.570312 88.335938 232.746094 88.539062 232.863281 88.792969 L 255.894531 131.683594 L 264.625 131.683594 L 264.625 120.761719 C 264.625 120.570312 264.660156 120.386719 264.734375 120.210938 C 264.808594 120.035156 264.914062 119.878906 265.046875 119.742188 C 265.183594 119.605469 265.339844 119.503906 265.515625 119.429688 C 265.691406 119.355469 265.875 119.320312 266.066406 119.320312 L 299.148438 119.320312 C 299.339844 119.320312 299.523438 119.355469 299.699219 119.429688 C 299.875 119.503906 300.03125 119.605469 300.164062 119.742188 C 300.300781 119.878906 300.40625 120.035156 300.476562 120.210938 C 300.550781 120.386719 300.589844 120.570312 300.589844 120.761719 L 300.589844 131.683594 L 309.519531 131.683594 C 309.707031 131.6875 309.894531 131.722656 310.070312 131.796875 C 310.246094 131.867188 310.402344 131.972656 310.539062 132.109375 C 310.671875 132.242188 310.777344 132.398438 310.851562 132.578125 C 310.921875 132.753906 310.960938 132.9375 310.960938 133.128906 L 310.960938 166.460938 C 310.960938 166.652344 310.921875 166.835938 310.851562 167.015625 C 310.777344 167.191406 310.671875 167.347656 310.539062 167.480469 C 310.402344 167.617188 310.246094 167.722656 310.070312 167.792969 C 309.894531 167.867188 309.707031 167.90625 309.519531 167.90625 L 307.820312 167.90625 L 307.820312 230.433594 L 309.519531 230.433594 C 309.707031 230.433594 309.894531 230.46875 310.070312 230.542969 C 310.246094 230.617188 310.402344 230.71875 310.539062 230.855469 C 310.671875 230.992188 310.777344 231.144531 310.851562 231.324219 C 310.921875 231.5 310.960938 231.683594 310.960938 231.875 L 310.960938 265.214844 C 310.960938 265.40625 310.921875 265.589844 310.851562 265.765625 C 310.777344 265.941406 310.671875 266.097656 310.539062 266.234375 C 310.402344 266.367188 310.246094 266.472656 310.070312 266.546875 C 309.894531 266.621094 309.707031 266.65625 309.519531 266.65625 L 236.847656 266.65625 C 233.472656 269.054688 229.9375 271.1875 226.242188 273.054688 C 222.546875 274.921875 218.730469 276.5 214.796875 277.789062 C 210.863281 279.082031 206.855469 280.070312 202.769531 280.753906 C 198.6875 281.441406 194.574219 281.816406 190.433594 281.882812 Z M 190.433594 90.84375 L 190.433594 116.457031 C 194.574219 116.523438 198.6875 116.898438 202.773438 117.585938 C 206.855469 118.269531 210.863281 119.257812 214.800781 120.550781 C 218.734375 121.839844 222.550781 123.421875 226.246094 125.285156 C 229.941406 127.152344 233.476562 129.285156 236.851562 131.6875 L 252.628906 131.6875 L 230.699219 90.839844 Z M 190.433594 119.34375 L 190.433594 131.699219 C 191.523438 131.722656 192.613281 131.773438 193.699219 131.847656 C 194.785156 131.921875 195.871094 132.027344 196.953125 132.15625 C 198.035156 132.28125 199.113281 132.4375 200.1875 132.617188 C 201.261719 132.800781 202.328125 133.003906 203.394531 133.238281 C 204.457031 133.46875 205.515625 133.726562 206.570312 134.011719 C 207.621094 134.296875 208.664062 134.605469 209.703125 134.9375 C 210.738281 135.273438 211.765625 135.632812 212.785156 136.015625 C 213.804688 136.402344 214.816406 136.808594 215.8125 137.242188 C 216.8125 137.675781 217.800781 138.132812 218.78125 138.613281 C 219.757812 139.09375 220.722656 139.597656 221.675781 140.125 C 222.628906 140.652344 223.570312 141.203125 224.496094 141.777344 C 225.421875 142.351562 226.335938 142.945312 227.230469 143.5625 C 228.128906 144.179688 229.011719 144.816406 229.878906 145.476562 C 230.746094 146.136719 231.59375 146.820312 232.429688 147.519531 C 233.261719 148.222656 234.078125 148.941406 234.878906 149.683594 C 235.675781 150.421875 236.457031 151.183594 237.21875 151.960938 C 237.980469 152.738281 238.722656 153.535156 239.449219 154.351562 C 240.171875 155.164062 240.875 155.996094 241.558594 156.847656 C 242.242188 157.695312 242.902344 158.558594 243.542969 159.4375 C 244.1875 160.320312 244.804688 161.214844 245.402344 162.125 C 246 163.035156 246.578125 163.960938 247.128906 164.898438 C 247.683594 165.839844 248.214844 166.789062 248.71875 167.753906 C 249.226562 168.71875 249.710938 169.695312 250.171875 170.679688 C 250.628906 171.667969 251.066406 172.667969 251.476562 173.675781 C 251.890625 174.683594 252.277344 175.703125 252.636719 176.730469 C 253 177.757812 253.335938 178.792969 253.648438 179.835938 C 253.960938 180.878906 254.25 181.929688 254.507812 182.988281 C 254.769531 184.046875 255.007812 185.109375 255.214844 186.179688 C 255.425781 187.246094 255.609375 188.320312 255.765625 189.398438 C 255.925781 190.476562 256.054688 191.558594 256.160156 192.644531 C 256.265625 193.726562 256.347656 194.8125 256.398438 195.902344 C 256.453125 196.988281 256.476562 198.078125 256.476562 199.167969 C 256.476562 200.257812 256.453125 201.347656 256.398438 202.433594 C 256.347656 203.523438 256.265625 204.609375 256.160156 205.691406 C 256.054688 206.777344 255.925781 207.859375 255.765625 208.9375 C 255.609375 210.015625 255.425781 211.085938 255.214844 212.15625 C 255.007812 213.226562 254.769531 214.289062 254.507812 215.347656 C 254.25 216.402344 253.960938 217.453125 253.648438 218.5 C 253.335938 219.542969 253 220.578125 252.636719 221.605469 C 252.277344 222.632812 251.890625 223.652344 251.476562 224.660156 C 251.066406 225.667969 250.628906 226.667969 250.171875 227.652344 C 249.710938 228.640625 249.226562 229.617188 248.71875 230.582031 C 248.214844 231.546875 247.683594 232.496094 247.128906 233.433594 C 246.578125 234.375 246 235.296875 245.402344 236.210938 C 244.804688 237.121094 244.1875 238.015625 243.542969 238.894531 C 242.902344 239.777344 242.242188 240.640625 241.558594 241.488281 C 240.875 242.339844 240.171875 243.167969 239.449219 243.984375 C 238.722656 244.796875 237.980469 245.59375 237.21875 246.375 C 236.457031 247.152344 235.675781 247.910156 234.878906 248.652344 C 234.078125 249.394531 233.261719 250.113281 232.429688 250.816406 C 231.59375 251.515625 230.746094 252.195312 229.878906 252.855469 C 229.011719 253.515625 228.128906 254.15625 227.230469 254.773438 C 226.335938 255.390625 225.421875 255.984375 224.496094 256.558594 C 223.570312 257.132812 222.628906 257.683594 221.675781 258.210938 C 220.722656 258.738281 219.757812 259.242188 218.78125 259.722656 C 217.800781 260.203125 216.8125 260.660156 215.8125 261.09375 C 214.816406 261.527344 213.804688 261.933594 212.785156 262.320312 C 211.765625 262.703125 210.738281 263.0625 209.703125 263.394531 C 208.664062 263.730469 207.621094 264.039062 206.566406 264.324219 C 205.515625 264.605469 204.457031 264.863281 203.394531 265.097656 C 202.328125 265.328125 201.261719 265.535156 200.1875 265.71875 C 199.113281 265.898438 198.035156 266.050781 196.953125 266.179688 C 195.871094 266.308594 194.785156 266.410156 193.699219 266.488281 C 192.613281 266.5625 191.523438 266.613281 190.433594 266.636719 L 190.433594 278.992188 C 191.726562 278.96875 193.015625 278.914062 194.304688 278.828125 C 195.59375 278.742188 196.878906 278.621094 198.160156 278.472656 C 199.441406 278.324219 200.722656 278.144531 201.996094 277.933594 C 203.269531 277.722656 204.535156 277.480469 205.800781 277.207031 C 207.0625 276.9375 208.316406 276.632812 209.5625 276.300781 C 210.808594 275.964844 212.050781 275.601562 213.277344 275.210938 C 214.507812 274.816406 215.726562 274.394531 216.9375 273.941406 C 218.148438 273.488281 219.34375 273.007812 220.53125 272.496094 C 221.714844 271.984375 222.890625 271.445312 224.046875 270.878906 C 225.207031 270.3125 226.351562 269.714844 227.484375 269.09375 C 228.613281 268.46875 229.730469 267.820312 230.828125 267.140625 C 231.929688 266.464844 233.011719 265.761719 234.074219 265.03125 C 235.140625 264.300781 236.1875 263.546875 237.214844 262.765625 C 238.246094 261.984375 239.253906 261.179688 240.242188 260.351562 C 241.234375 259.519531 242.203125 258.667969 243.148438 257.792969 C 244.097656 256.914062 245.023438 256.015625 245.929688 255.09375 C 246.832031 254.171875 247.714844 253.230469 248.574219 252.265625 C 249.433594 251.300781 250.265625 250.316406 251.078125 249.3125 C 251.890625 248.308594 252.675781 247.285156 253.4375 246.242188 C 254.199219 245.199219 254.933594 244.136719 255.644531 243.058594 C 256.351562 241.980469 257.035156 240.886719 257.691406 239.773438 C 258.347656 238.660156 258.980469 237.535156 259.582031 236.394531 C 260.183594 235.25 260.757812 234.09375 261.304688 232.925781 C 261.847656 231.753906 262.367188 230.570312 262.855469 229.375 C 263.34375 228.179688 263.800781 226.976562 264.234375 225.757812 C 264.664062 224.539062 265.0625 223.3125 265.433594 222.074219 C 265.804688 220.839844 266.144531 219.59375 266.453125 218.339844 C 266.765625 217.085938 267.042969 215.828125 267.292969 214.558594 C 267.542969 213.292969 267.757812 212.019531 267.945312 210.742188 C 268.132812 209.464844 268.289062 208.183594 268.414062 206.898438 C 268.539062 205.613281 268.632812 204.328125 268.695312 203.039062 C 268.757812 201.746094 268.789062 200.457031 268.789062 199.167969 C 268.789062 197.875 268.757812 196.585938 268.695312 195.292969 C 268.632812 194.003906 268.539062 192.71875 268.414062 191.433594 C 268.289062 190.148438 268.132812 188.867188 267.945312 187.589844 C 267.757812 186.3125 267.542969 185.039062 267.292969 183.773438 C 267.042969 182.503906 266.765625 181.246094 266.453125 179.992188 C 266.144531 178.738281 265.804688 177.492188 265.433594 176.257812 C 265.0625 175.019531 264.664062 173.792969 264.234375 172.574219 C 263.800781 171.355469 263.34375 170.152344 262.855469 168.957031 C 262.367188 167.761719 261.847656 166.578125 261.304688 165.40625 C 260.757812 164.238281 260.183594 163.082031 259.582031 161.9375 C 258.980469 160.796875 258.347656 159.671875 257.691406 158.558594 C 257.035156 157.445312 256.351562 156.351562 255.644531 155.273438 C 254.933594 154.195312 254.199219 153.132812 253.4375 152.089844 C 252.675781 151.046875 251.890625 150.023438 251.078125 149.019531 C 250.265625 148.015625 249.433594 147.03125 248.574219 146.066406 C 247.714844 145.101562 246.832031 144.160156 245.929688 143.238281 C 245.023438 142.316406 244.097656 141.417969 243.148438 140.539062 C 242.203125 139.664062 241.234375 138.8125 240.242188 137.980469 C 239.253906 137.152344 238.246094 136.347656 237.214844 135.566406 C 236.1875 134.785156 235.140625 134.03125 234.074219 133.300781 C 233.011719 132.570312 231.929688 131.867188 230.828125 131.191406 C 229.730469 130.511719 228.613281 129.863281 227.484375 129.238281 C 226.351562 128.617188 225.207031 128.019531 224.046875 127.453125 C 222.890625 126.886719 221.714844 126.347656 220.53125 125.835938 C 219.34375 125.324219 218.148438 124.84375 216.9375 124.390625 C 215.726562 123.9375 214.507812 123.515625 213.277344 123.121094 C 212.050781 122.730469 210.808594 122.367188 209.5625 122.03125 C 208.316406 121.699219 207.0625 121.394531 205.800781 121.125 C 204.535156 120.851562 203.269531 120.609375 201.996094 120.398438 C 200.722656 120.1875 199.441406 120.007812 198.160156 119.859375 C 196.878906 119.710938 195.59375 119.589844 194.304688 119.503906 C 193.015625 119.417969 191.726562 119.363281 190.433594 119.339844 Z M 190.433594 134.585938 L 190.433594 263.753906 C 192.519531 263.710938 194.601562 263.5625 196.671875 263.316406 C 198.742188 263.070312 200.796875 262.722656 202.835938 262.277344 C 204.875 261.832031 206.886719 261.285156 208.871094 260.644531 C 210.855469 260.003906 212.804688 259.269531 214.71875 258.441406 C 216.632812 257.609375 218.503906 256.691406 220.328125 255.679688 C 222.152344 254.667969 223.925781 253.570312 225.644531 252.386719 C 227.363281 251.207031 229.019531 249.941406 230.617188 248.601562 C 232.214844 247.257812 233.742188 245.839844 235.199219 244.347656 C 236.660156 242.855469 238.042969 241.296875 239.351562 239.671875 C 240.660156 238.046875 241.886719 236.363281 243.03125 234.621094 C 244.175781 232.875 245.230469 231.078125 246.203125 229.234375 C 247.175781 227.386719 248.054688 225.496094 248.839844 223.566406 C 249.628906 221.632812 250.320312 219.667969 250.917969 217.667969 C 251.515625 215.671875 252.015625 213.648438 252.417969 211.601562 C 252.820312 209.554688 253.121094 207.492188 253.320312 205.414062 C 253.523438 203.339844 253.625 201.257812 253.625 199.171875 C 253.625 197.085938 253.523438 195.003906 253.320312 192.925781 C 253.121094 190.851562 252.820312 188.789062 252.417969 186.742188 C 252.015625 184.695312 251.515625 182.671875 250.917969 180.671875 C 250.320312 178.671875 249.628906 176.707031 248.839844 174.777344 C 248.054688 172.84375 247.175781 170.953125 246.203125 169.109375 C 245.230469 167.261719 244.175781 165.464844 243.03125 163.722656 C 241.886719 161.976562 240.660156 160.292969 239.351562 158.667969 C 238.042969 157.042969 236.660156 155.484375 235.199219 153.992188 C 233.742188 152.503906 232.214844 151.085938 230.617188 149.742188 C 229.019531 148.398438 227.363281 147.136719 225.644531 145.953125 C 223.925781 144.769531 222.152344 143.671875 220.328125 142.664062 C 218.503906 141.652344 216.632812 140.730469 214.71875 139.902344 C 212.804688 139.070312 210.855469 138.335938 208.871094 137.695312 C 206.886719 137.054688 204.875 136.511719 202.835938 136.066406 C 200.796875 135.617188 198.742188 135.273438 196.671875 135.027344 C 194.601562 134.777344 192.519531 134.632812 190.433594 134.585938 Z M 297.703125 131.683594 L 297.703125 122.203125 L 267.511719 122.203125 L 267.511719 131.683594 Z M 238.4375 208 C 238.324219 208.625 238.199219 209.253906 238.066406 209.878906 C 237.9375 210.480469 237.789062 211.101562 237.628906 211.734375 C 237.582031 211.917969 237.570312 212.105469 237.597656 212.296875 C 237.625 212.484375 237.6875 212.664062 237.785156 212.828125 C 237.882812 212.992188 238.007812 213.132812 238.160156 213.25 C 238.3125 213.363281 238.484375 213.445312 238.667969 213.492188 C 238.855469 213.539062 239.042969 213.546875 239.234375 213.519531 C 239.421875 213.492188 239.601562 213.429688 239.765625 213.332031 C 239.929688 213.234375 240.066406 213.109375 240.183594 212.953125 C 240.296875 212.800781 240.378906 212.628906 240.425781 212.445312 C 240.582031 211.816406 240.734375 211.164062 240.882812 210.488281 C 241.023438 209.832031 241.15625 209.167969 241.277344 208.492188 C 241.308594 208.308594 241.300781 208.121094 241.253906 207.9375 C 241.210938 207.753906 241.132812 207.585938 241.023438 207.433594 C 240.914062 207.28125 240.78125 207.152344 240.621094 207.054688 C 240.460938 206.953125 240.289062 206.886719 240.101562 206.855469 C 239.914062 206.824219 239.730469 206.828125 239.546875 206.867188 C 239.363281 206.90625 239.191406 206.980469 239.035156 207.085938 C 238.882812 207.195312 238.753906 207.328125 238.648438 207.484375 C 238.546875 207.640625 238.476562 207.8125 238.4375 208 Z M 234.855469 219.675781 C 233.15625 223.464844 231.019531 226.992188 228.445312 230.25 C 225.871094 233.515625 222.933594 236.421875 219.640625 238.960938 C 219.492188 239.078125 219.367188 239.21875 219.273438 239.382812 C 219.179688 239.550781 219.117188 239.726562 219.09375 239.917969 C 219.070312 240.105469 219.082031 240.292969 219.132812 240.476562 C 219.183594 240.660156 219.265625 240.828125 219.382812 240.980469 C 219.5 241.128906 219.640625 241.253906 219.804688 241.347656 C 219.972656 241.441406 220.148438 241.5 220.335938 241.527344 C 220.527344 241.550781 220.714844 241.539062 220.898438 241.488281 C 221.082031 241.4375 221.25 241.355469 221.398438 241.238281 C 224.878906 238.554688 227.980469 235.484375 230.703125 232.035156 C 233.421875 228.582031 235.683594 224.851562 237.480469 220.839844 C 237.558594 220.667969 237.601562 220.484375 237.605469 220.292969 C 237.609375 220.101562 237.578125 219.917969 237.507812 219.742188 C 237.441406 219.5625 237.339844 219.40625 237.210938 219.265625 C 237.078125 219.128906 236.925781 219.019531 236.75 218.945312 C 236.578125 218.867188 236.394531 218.824219 236.203125 218.820312 C 236.015625 218.816406 235.828125 218.847656 235.652344 218.914062 C 235.472656 218.984375 235.316406 219.085938 235.175781 219.214844 C 235.039062 219.347656 234.929688 219.5 234.855469 219.675781 Z M 212.523438 243.558594 C 211.925781 243.871094 211.285156 244.195312 210.605469 244.519531 C 209.925781 244.84375 209.257812 245.144531 208.644531 245.40625 C 208.472656 245.484375 208.324219 245.589844 208.191406 245.726562 C 208.0625 245.863281 207.960938 246.019531 207.894531 246.195312 C 207.824219 246.371094 207.789062 246.554688 207.792969 246.742188 C 207.796875 246.929688 207.835938 247.113281 207.910156 247.285156 C 207.984375 247.457031 208.085938 247.613281 208.222656 247.746094 C 208.355469 247.878906 208.507812 247.980469 208.683594 248.050781 C 208.859375 248.125 209.039062 248.160156 209.230469 248.160156 C 209.417969 248.160156 209.597656 248.125 209.773438 248.054688 C 210.515625 247.738281 211.207031 247.425781 211.84375 247.121094 C 212.488281 246.8125 213.167969 246.472656 213.867188 246.105469 C 214.03125 246.011719 214.175781 245.894531 214.292969 245.746094 C 214.414062 245.601562 214.5 245.4375 214.554688 245.253906 C 214.609375 245.074219 214.628906 244.890625 214.609375 244.703125 C 214.59375 244.511719 214.539062 244.335938 214.449219 244.167969 C 214.363281 244 214.246094 243.855469 214.101562 243.734375 C 213.957031 243.613281 213.792969 243.523438 213.613281 243.46875 C 213.433594 243.410156 213.25 243.390625 213.058594 243.40625 C 212.871094 243.421875 212.691406 243.472656 212.523438 243.558594 Z M 240.667969 263.773438 L 308.078125 263.773438 L 308.078125 233.316406 L 264.363281 233.316406 C 261.664062 239.253906 258.3125 244.792969 254.308594 249.9375 C 250.308594 255.085938 245.761719 259.695312 240.671875 263.769531 Z M 306.417969 165.023438 L 308.074219 165.023438 L 308.074219 134.570312 L 240.671875 134.570312 C 245.761719 138.644531 250.308594 143.253906 254.3125 148.402344 C 258.316406 153.546875 261.664062 159.085938 264.363281 165.019531 Z M 265.605469 230.433594 L 304.933594 230.433594 L 304.933594 167.90625 L 265.605469 167.90625 C 266.609375 170.382812 267.496094 172.898438 268.257812 175.460938 C 269.023438 178.023438 269.660156 180.617188 270.171875 183.242188 C 270.6875 185.863281 271.070312 188.507812 271.328125 191.167969 C 271.585938 193.828125 271.714844 196.496094 271.714844 199.167969 C 271.714844 201.839844 271.585938 204.507812 271.328125 207.167969 C 271.070312 209.832031 270.6875 212.472656 270.171875 215.097656 C 269.660156 217.71875 269.023438 220.3125 268.257812 222.875 C 267.496094 225.4375 266.609375 227.957031 265.605469 230.433594 Z M 265.605469 230.433594 " fill-opacity="1" fill-rule="evenodd"/></g><g fill="#000000" fill-opacity="1"><g transform="translate(43.282931, 169.195916)"><g><path d="M 9.0625 -5.203125 L 22.4375 -5.203125 L 22.4375 0 L 2.5 0 L 2.5 -28.578125 L 9.0625 -28.578125 Z M 9.0625 -5.203125 "/></g></g></g><g fill="#000000" fill-opacity="1"><g transform="translate(68.677225, 169.195916)"><g><path d="M 9.03125 -5.203125 L 25.046875 -5.203125 L 25.046875 0 L 2.5 0 L 2.5 -28.578125 L 24.921875 -28.578125 L 24.921875 -23.421875 L 9.03125 -23.421875 L 9.03125 -17.015625 L 23.640625 -17.015625 L 23.640625 -12.15625 L 9.03125 -12.15625 Z M 9.03125 -5.203125 "/></g></g></g><g fill="#000000" fill-opacity="1"><g transform="translate(98.02451, 169.195916)"><g><path d="M 23.890625 -28.578125 L 30.171875 -28.578125 L 30.171875 0 L 19.34375 0 L 10.40625 -19.515625 C 10.082031 -20.253906 9.785156 -20.988281 9.515625 -21.71875 C 9.242188 -22.445312 8.992188 -23.171875 8.765625 -23.890625 L 8.765625 0 L 2.5 0 L 2.5 -28.578125 L 13.328125 -28.578125 L 22.34375 -8.765625 C 22.601562 -8.160156 22.867188 -7.507812 23.140625 -6.8125 C 23.410156 -6.113281 23.660156 -5.390625 23.890625 -4.640625 Z M 23.890625 -28.578125 "/></g></g></g><g fill="#000000" fill-opacity="1"><g transform="translate(132.828635, 169.195916)"><g><path d="M 1.671875 -9.40625 L 8.03125 -9.40625 C 8.125 -7.894531 8.675781 -6.632812 9.6875 -5.625 C 10.707031 -4.625 12.347656 -4.125 14.609375 -4.125 C 16.785156 -4.125 18.289062 -4.46875 19.125 -5.15625 C 19.957031 -5.84375 20.375 -6.757812 20.375 -7.90625 C 20.375 -9.96875 19.097656 -11.171875 16.546875 -11.515625 L 10.234375 -12.328125 C 7.710938 -12.648438 5.765625 -13.5 4.390625 -14.875 C 3.015625 -16.25 2.328125 -18.109375 2.328125 -20.453125 C 2.328125 -23.035156 3.304688 -25.15625 5.265625 -26.8125 C 7.222656 -28.476562 10.207031 -29.3125 14.21875 -29.3125 C 17.082031 -29.3125 19.398438 -28.894531 21.171875 -28.0625 C 22.953125 -27.226562 24.28125 -26.113281 25.15625 -24.71875 C 26.03125 -23.332031 26.523438 -21.796875 26.640625 -20.109375 L 20.234375 -20.109375 C 20.066406 -21.453125 19.492188 -22.519531 18.515625 -23.3125 C 17.546875 -24.101562 16.113281 -24.5 14.21875 -24.5 C 12.476562 -24.5 11.15625 -24.164062 10.25 -23.5 C 9.34375 -22.84375 8.890625 -21.957031 8.890625 -20.84375 C 8.890625 -20.007812 9.15625 -19.304688 9.6875 -18.734375 C 10.21875 -18.160156 11.070312 -17.800781 12.25 -17.65625 L 18.21875 -16.9375 C 24.03125 -16.269531 26.9375 -13.472656 26.9375 -8.546875 C 26.9375 -6.691406 26.519531 -5.0625 25.6875 -3.65625 C 24.863281 -2.25 23.539062 -1.164062 21.71875 -0.40625 C 19.90625 0.351562 17.507812 0.734375 14.53125 0.734375 C 12.175781 0.734375 10.1875 0.453125 8.5625 -0.109375 C 6.945312 -0.671875 5.644531 -1.429688 4.65625 -2.390625 C 3.675781 -3.347656 2.945312 -4.4375 2.46875 -5.65625 C 2 -6.875 1.734375 -8.125 1.671875 -9.40625 Z M 1.671875 -9.40625 "/></g></g></g><g fill="#000000" fill-opacity="1"><g transform="translate(25.402078, 210.066436)"><g><path d="M 9.0625 -5.203125 L 22.4375 -5.203125 L 22.4375 0 L 2.5 0 L 2.5 -28.578125 L 9.0625 -28.578125 Z M 9.0625 -5.203125 "/></g></g></g><g fill="#000000" fill-opacity="1"><g transform="translate(50.796372, 210.066436)"><g><path d="M 17.015625 0.734375 C 14.265625 0.734375 11.929688 0.328125 10.015625 -0.484375 C 8.097656 -1.304688 6.539062 -2.410156 5.34375 -3.796875 C 4.15625 -5.191406 3.289062 -6.789062 2.75 -8.59375 C 2.207031 -10.394531 1.9375 -12.285156 1.9375 -14.265625 C 1.9375 -16.210938 2.207031 -18.082031 2.75 -19.875 C 3.289062 -21.664062 4.15625 -23.269531 5.34375 -24.6875 C 6.539062 -26.101562 8.097656 -27.226562 10.015625 -28.0625 C 11.929688 -28.894531 14.265625 -29.3125 17.015625 -29.3125 C 19.765625 -29.3125 22.09375 -28.894531 24 -28.0625 C 25.90625 -27.226562 27.453125 -26.101562 28.640625 -24.6875 C 29.828125 -23.269531 30.691406 -21.664062 31.234375 -19.875 C 31.785156 -18.082031 32.0625 -16.210938 32.0625 -14.265625 C 32.0625 -12.285156 31.785156 -10.398438 31.234375 -8.609375 C 30.691406 -6.828125 29.828125 -5.234375 28.640625 -3.828125 C 27.453125 -2.421875 25.90625 -1.304688 24 -0.484375 C 22.09375 0.328125 19.765625 0.734375 17.015625 0.734375 Z M 8.765625 -14.265625 C 8.765625 -12.203125 9.015625 -10.453125 9.515625 -9.015625 C 10.015625 -7.585938 10.863281 -6.5 12.0625 -5.75 C 13.269531 -5.007812 14.921875 -4.640625 17.015625 -4.640625 C 19.109375 -4.640625 20.753906 -5.007812 21.953125 -5.75 C 23.160156 -6.5 24.015625 -7.585938 24.515625 -9.015625 C 25.015625 -10.453125 25.265625 -12.203125 25.265625 -14.265625 C 25.265625 -16.390625 25.015625 -18.164062 24.515625 -19.59375 C 24.015625 -21.03125 23.160156 -22.117188 21.953125 -22.859375 C 20.753906 -23.609375 19.109375 -23.984375 17.015625 -23.984375 C 14.921875 -23.984375 13.269531 -23.609375 12.0625 -22.859375 C 10.863281 -22.117188 10.015625 -21.03125 9.515625 -19.59375 C 9.015625 -18.164062 8.765625 -16.390625 8.765625 -14.265625 Z M 8.765625 -14.265625 "/></g></g></g><g fill="#000000" fill-opacity="1"><g transform="translate(86.932482, 210.066436)"><g><path d="M 21.09375 -14.734375 C 22.300781 -14.566406 23.375 -14.222656 24.3125 -13.703125 C 25.257812 -13.191406 26.003906 -12.457031 26.546875 -11.5 C 27.097656 -10.539062 27.375 -9.300781 27.375 -7.78125 C 27.375 -5.375 26.597656 -3.472656 25.046875 -2.078125 C 23.503906 -0.691406 21.203125 0 18.140625 0 L 2.5 0 L 2.5 -28.578125 L 18.4375 -28.578125 C 20.46875 -28.578125 22.113281 -28.257812 23.375 -27.625 C 24.632812 -27 25.550781 -26.148438 26.125 -25.078125 C 26.695312 -24.003906 26.984375 -22.820312 26.984375 -21.53125 C 26.984375 -19.4375 26.410156 -17.863281 25.265625 -16.8125 C 24.117188 -15.769531 22.726562 -15.078125 21.09375 -14.734375 Z M 16.5 -23.640625 L 9.03125 -23.640625 L 9.03125 -16.796875 L 16.28125 -16.796875 C 17.71875 -16.796875 18.722656 -17.109375 19.296875 -17.734375 C 19.867188 -18.367188 20.15625 -19.203125 20.15625 -20.234375 C 20.15625 -21.328125 19.878906 -22.164062 19.328125 -22.75 C 18.785156 -23.34375 17.84375 -23.640625 16.5 -23.640625 Z M 16.671875 -4.984375 C 18.128906 -4.984375 19.144531 -5.332031 19.71875 -6.03125 C 20.289062 -6.738281 20.578125 -7.625 20.578125 -8.6875 C 20.578125 -9.832031 20.253906 -10.738281 19.609375 -11.40625 C 18.972656 -12.082031 17.863281 -12.421875 16.28125 -12.421875 L 9.03125 -12.421875 L 9.03125 -4.984375 Z M 16.671875 -4.984375 "/></g></g></g><g fill="#000000" fill-opacity="1"><g transform="translate(118.170331, 210.066436)"><g><path d="M 21.09375 -14.734375 C 22.300781 -14.566406 23.375 -14.222656 24.3125 -13.703125 C 25.257812 -13.191406 26.003906 -12.457031 26.546875 -11.5 C 27.097656 -10.539062 27.375 -9.300781 27.375 -7.78125 C 27.375 -5.375 26.597656 -3.472656 25.046875 -2.078125 C 23.503906 -0.691406 21.203125 0 18.140625 0 L 2.5 0 L 2.5 -28.578125 L 18.4375 -28.578125 C 20.46875 -28.578125 22.113281 -28.257812 23.375 -27.625 C 24.632812 -27 25.550781 -26.148438 26.125 -25.078125 C 26.695312 -24.003906 26.984375 -22.820312 26.984375 -21.53125 C 26.984375 -19.4375 26.410156 -17.863281 25.265625 -16.8125 C 24.117188 -15.769531 22.726562 -15.078125 21.09375 -14.734375 Z M 16.5 -23.640625 L 9.03125 -23.640625 L 9.03125 -16.796875 L 16.28125 -16.796875 C 17.71875 -16.796875 18.722656 -17.109375 19.296875 -17.734375 C 19.867188 -18.367188 20.15625 -19.203125 20.15625 -20.234375 C 20.15625 -21.328125 19.878906 -22.164062 19.328125 -22.75 C 18.785156 -23.34375 17.84375 -23.640625 16.5 -23.640625 Z M 16.671875 -4.984375 C 18.128906 -4.984375 19.144531 -5.332031 19.71875 -6.03125 C 20.289062 -6.738281 20.578125 -7.625 20.578125 -8.6875 C 20.578125 -9.832031 20.253906 -10.738281 19.609375 -11.40625 C 18.972656 -12.082031 17.863281 -12.421875 16.28125 -12.421875 L 9.03125 -12.421875 L 9.03125 -4.984375 Z M 16.671875 -4.984375 "/></g></g></g><g fill="#000000" fill-opacity="1"><g transform="translate(149.40817, 210.066436)"><g><path d="M 21.78125 -28.578125 L 29.046875 -28.578125 L 18.3125 -8.640625 L 18.3125 0 L 11.78125 0 L 11.78125 -8.640625 L 0.984375 -28.578125 L 8.296875 -28.578125 L 12.984375 -18.65625 C 13.328125 -17.851562 13.671875 -17.0625 14.015625 -16.28125 C 14.359375 -15.507812 14.671875 -14.722656 14.953125 -13.921875 C 15.296875 -14.722656 15.640625 -15.507812 15.984375 -16.28125 C 16.328125 -17.0625 16.6875 -17.851562 17.0625 -18.65625 Z M 21.78125 -28.578125 "/></g></g></g><g fill="#545454" fill-opacity="1"><g transform="translate(75.107608, 225.082193)"><g><path d="M 1.46875 -3.421875 L 1.46875 -2.3125 L 3.40625 -2.3125 L 3.40625 -1.53125 L 1.46875 -1.53125 L 1.46875 0 L 0.5 0 L 0.5 -4.203125 L 3.671875 -4.203125 L 3.671875 -3.421875 Z M 1.46875 -3.421875 "/></g></g></g><g fill="#545454" fill-opacity="1"><g transform="translate(81.041818, 225.082193)"><g><path d="M 3.171875 0 L 2.359375 -1.171875 L 1.46875 -1.171875 L 1.46875 0 L 0.5 0 L 0.5 -4.203125 L 2.3125 -4.203125 C 2.6875 -4.203125 3.007812 -4.140625 3.28125 -4.015625 C 3.5625 -3.890625 3.773438 -3.710938 3.921875 -3.484375 C 4.066406 -3.253906 4.140625 -2.984375 4.140625 -2.671875 C 4.140625 -2.359375 4.0625 -2.085938 3.90625 -1.859375 C 3.757812 -1.640625 3.550781 -1.46875 3.28125 -1.34375 L 4.21875 0 Z M 3.15625 -2.671875 C 3.15625 -2.910156 3.078125 -3.09375 2.921875 -3.21875 C 2.773438 -3.34375 2.554688 -3.40625 2.265625 -3.40625 L 1.46875 -3.40625 L 1.46875 -1.9375 L 2.265625 -1.9375 C 2.554688 -1.9375 2.773438 -2 2.921875 -2.125 C 3.078125 -2.257812 3.15625 -2.441406 3.15625 -2.671875 Z M 3.15625 -2.671875 "/></g></g></g><g fill="#545454" fill-opacity="1"><g transform="translate(87.552048, 225.082193)"><g><path d="M 3.75 -0.78125 L 3.75 0 L 0.5 0 L 0.5 -4.203125 L 3.671875 -4.203125 L 3.671875 -3.421875 L 1.46875 -3.421875 L 1.46875 -2.515625 L 3.40625 -2.515625 L 3.40625 -1.75 L 1.46875 -1.75 L 1.46875 -0.78125 Z M 3.75 -0.78125 "/></g></g></g><g fill="#545454" fill-opacity="1"><g transform="translate(93.678264, 225.082193)"><g><path d="M 3.75 -0.78125 L 3.75 0 L 0.5 0 L 0.5 -4.203125 L 3.671875 -4.203125 L 3.671875 -3.421875 L 1.46875 -3.421875 L 1.46875 -2.515625 L 3.40625 -2.515625 L 3.40625 -1.75 L 1.46875 -1.75 L 1.46875 -0.78125 Z M 3.75 -0.78125 "/></g></g></g><g fill="#545454" fill-opacity="1"><g transform="translate(99.804481, 225.082193)"><g><path d="M 0.5 -4.203125 L 1.46875 -4.203125 L 1.46875 -0.796875 L 3.578125 -0.796875 L 3.578125 0 L 0.5 0 Z M 0.5 -4.203125 "/></g></g></g><g fill="#545454" fill-opacity="1"><g transform="translate(105.528678, 225.082193)"><g><path d="M 3.265625 -0.90625 L 1.3125 -0.90625 L 0.9375 0 L -0.046875 0 L 1.8125 -4.203125 L 2.78125 -4.203125 L 4.65625 0 L 3.640625 0 Z M 2.953125 -1.640625 L 2.296875 -3.25 L 1.625 -1.640625 Z M 2.953125 -1.640625 "/></g></g></g><g fill="#545454" fill-opacity="1"><g transform="translate(112.22491, 225.082193)"><g><path d="M 4.34375 -4.203125 L 4.34375 0 L 3.546875 0 L 1.453125 -2.546875 L 1.453125 0 L 0.5 0 L 0.5 -4.203125 L 1.296875 -4.203125 L 3.390625 -1.65625 L 3.390625 -4.203125 Z M 4.34375 -4.203125 "/></g></g></g><g fill="#545454" fill-opacity="1"><g transform="translate(119.173156, 225.082193)"><g><path d="M 2.515625 0.078125 C 2.078125 0.078125 1.6875 -0.015625 1.34375 -0.203125 C 1 -0.390625 0.726562 -0.644531 0.53125 -0.96875 C 0.332031 -1.300781 0.234375 -1.675781 0.234375 -2.09375 C 0.234375 -2.507812 0.332031 -2.882812 0.53125 -3.21875 C 0.726562 -3.550781 1 -3.804688 1.34375 -3.984375 C 1.6875 -4.171875 2.078125 -4.265625 2.515625 -4.265625 C 2.878906 -4.265625 3.207031 -4.203125 3.5 -4.078125 C 3.789062 -3.953125 4.035156 -3.769531 4.234375 -3.53125 L 3.625 -2.953125 C 3.332031 -3.273438 2.976562 -3.4375 2.5625 -3.4375 C 2.300781 -3.4375 2.066406 -3.378906 1.859375 -3.265625 C 1.660156 -3.160156 1.503906 -3.003906 1.390625 -2.796875 C 1.273438 -2.585938 1.21875 -2.351562 1.21875 -2.09375 C 1.21875 -1.832031 1.273438 -1.597656 1.390625 -1.390625 C 1.503906 -1.191406 1.660156 -1.035156 1.859375 -0.921875 C 2.066406 -0.804688 2.300781 -0.75 2.5625 -0.75 C 2.976562 -0.75 3.332031 -0.914062 3.625 -1.25 L 4.234375 -0.671875 C 4.035156 -0.429688 3.785156 -0.242188 3.484375 -0.109375 C 3.191406 0.015625 2.867188 0.078125 2.515625 0.078125 Z M 2.515625 0.078125 "/></g></g></g><g fill="#545454" fill-opacity="1"><g transform="translate(125.671384, 225.082193)"><g><path d="M 3.75 -0.78125 L 3.75 0 L 0.5 0 L 0.5 -4.203125 L 3.671875 -4.203125 L 3.671875 -3.421875 L 1.46875 -3.421875 L 1.46875 -2.515625 L 3.40625 -2.515625 L 3.40625 -1.75 L 1.46875 -1.75 L 1.46875 -0.78125 Z M 3.75 -0.78125 "/></g></g></g><g fill="#545454" fill-opacity="1"><g transform="translate(77.373302, 233.082434)"><g><path d="M 2.3125 -4.203125 C 2.6875 -4.203125 3.007812 -4.140625 3.28125 -4.015625 C 3.5625 -3.890625 3.773438 -3.710938 3.921875 -3.484375 C 4.066406 -3.253906 4.140625 -2.984375 4.140625 -2.671875 C 4.140625 -2.367188 4.066406 -2.101562 3.921875 -1.875 C 3.773438 -1.644531 3.5625 -1.46875 3.28125 -1.34375 C 3.007812 -1.21875 2.6875 -1.15625 2.3125 -1.15625 L 1.46875 -1.15625 L 1.46875 0 L 0.5 0 L 0.5 -4.203125 Z M 2.265625 -1.953125 C 2.554688 -1.953125 2.773438 -2.015625 2.921875 -2.140625 C 3.078125 -2.265625 3.15625 -2.441406 3.15625 -2.671875 C 3.15625 -2.910156 3.078125 -3.09375 2.921875 -3.21875 C 2.773438 -3.34375 2.554688 -3.40625 2.265625 -3.40625 L 1.46875 -3.40625 L 1.46875 -1.953125 Z M 2.265625 -1.953125 "/></g></g></g><g fill="#545454" fill-opacity="1"><g transform="translate(83.865527, 233.082434)"><g><path d="M 0.5 -4.203125 L 1.46875 -4.203125 L 1.46875 -0.796875 L 3.578125 -0.796875 L 3.578125 0 L 0.5 0 Z M 0.5 -4.203125 "/></g></g></g><g fill="#545454" fill-opacity="1"><g transform="translate(89.589723, 233.082434)"><g><path d="M 3.265625 -0.90625 L 1.3125 -0.90625 L 0.9375 0 L -0.046875 0 L 1.8125 -4.203125 L 2.78125 -4.203125 L 4.65625 0 L 3.640625 0 Z M 2.953125 -1.640625 L 2.296875 -3.25 L 1.625 -1.640625 Z M 2.953125 -1.640625 "/></g></g></g><g fill="#545454" fill-opacity="1"><g transform="translate(96.285956, 233.082434)"><g><path d="M 1.375 -3.40625 L 0.03125 -3.40625 L 0.03125 -4.203125 L 3.6875 -4.203125 L 3.6875 -3.40625 L 2.34375 -3.40625 L 2.34375 0 L 1.375 0 Z M 1.375 -3.40625 "/></g></g></g><g fill="#545454" fill-opacity="1"><g transform="translate(102.094155, 233.082434)"><g><path d="M 1.46875 -3.421875 L 1.46875 -2.3125 L 3.40625 -2.3125 L 3.40625 -1.53125 L 1.46875 -1.53125 L 1.46875 0 L 0.5 0 L 0.5 -4.203125 L 3.671875 -4.203125 L 3.671875 -3.421875 Z M 1.46875 -3.421875 "/></g></g></g><g fill="#545454" fill-opacity="1"><g transform="translate(108.028364, 233.082434)"><g><path d="M 2.53125 0.078125 C 2.09375 0.078125 1.695312 -0.015625 1.34375 -0.203125 C 1 -0.390625 0.726562 -0.648438 0.53125 -0.984375 C 0.332031 -1.316406 0.234375 -1.6875 0.234375 -2.09375 C 0.234375 -2.507812 0.332031 -2.878906 0.53125 -3.203125 C 0.726562 -3.535156 1 -3.796875 1.34375 -3.984375 C 1.695312 -4.171875 2.09375 -4.265625 2.53125 -4.265625 C 2.96875 -4.265625 3.359375 -4.171875 3.703125 -3.984375 C 4.054688 -3.796875 4.332031 -3.535156 4.53125 -3.203125 C 4.726562 -2.878906 4.828125 -2.507812 4.828125 -2.09375 C 4.828125 -1.6875 4.726562 -1.316406 4.53125 -0.984375 C 4.332031 -0.648438 4.054688 -0.390625 3.703125 -0.203125 C 3.359375 -0.015625 2.96875 0.078125 2.53125 0.078125 Z M 2.53125 -0.75 C 2.78125 -0.75 3.003906 -0.804688 3.203125 -0.921875 C 3.398438 -1.035156 3.554688 -1.191406 3.671875 -1.390625 C 3.785156 -1.597656 3.84375 -1.832031 3.84375 -2.09375 C 3.84375 -2.351562 3.785156 -2.585938 3.671875 -2.796875 C 3.554688 -3.003906 3.398438 -3.160156 3.203125 -3.265625 C 3.003906 -3.378906 2.78125 -3.4375 2.53125 -3.4375 C 2.28125 -3.4375 2.054688 -3.378906 1.859375 -3.265625 C 1.660156 -3.160156 1.503906 -3.003906 1.390625 -2.796875 C 1.273438 -2.585938 1.21875 -2.351562 1.21875 -2.09375 C 1.21875 -1.832031 1.273438 -1.597656 1.390625 -1.390625 C 1.503906 -1.191406 1.660156 -1.035156 1.859375 -0.921875 C 2.054688 -0.804688 2.28125 -0.75 2.53125 -0.75 Z M 2.53125 -0.75 "/></g></g></g><g fill="#545454" fill-opacity="1"><g transform="translate(115.192613, 233.082434)"><g><path d="M 3.171875 0 L 2.359375 -1.171875 L 1.46875 -1.171875 L 1.46875 0 L 0.5 0 L 0.5 -4.203125 L 2.3125 -4.203125 C 2.6875 -4.203125 3.007812 -4.140625 3.28125 -4.015625 C 3.5625 -3.890625 3.773438 -3.710938 3.921875 -3.484375 C 4.066406 -3.253906 4.140625 -2.984375 4.140625 -2.671875 C 4.140625 -2.359375 4.0625 -2.085938 3.90625 -1.859375 C 3.757812 -1.640625 3.550781 -1.46875 3.28125 -1.34375 L 4.21875 0 Z M 3.15625 -2.671875 C 3.15625 -2.910156 3.078125 -3.09375 2.921875 -3.21875 C 2.773438 -3.34375 2.554688 -3.40625 2.265625 -3.40625 L 1.46875 -3.40625 L 1.46875 -1.9375 L 2.265625 -1.9375 C 2.554688 -1.9375 2.773438 -2 2.921875 -2.125 C 3.078125 -2.257812 3.15625 -2.441406 3.15625 -2.671875 Z M 3.15625 -2.671875 "/></g></g></g><g fill="#545454" fill-opacity="1"><g transform="translate(121.702842, 233.082434)"><g><path d="M 4.3125 0 L 4.3125 -2.515625 L 3.078125 -0.4375 L 2.640625 -0.4375 L 1.40625 -2.46875 L 1.40625 0 L 0.5 0 L 0.5 -4.203125 L 1.296875 -4.203125 L 2.875 -1.59375 L 4.421875 -4.203125 L 5.21875 -4.203125 L 5.234375 0 Z M 4.3125 0 "/></g></g></g><g fill="#545454" fill-opacity="1"><g transform="translate(60.700923, 241.082676)"><g><path d="M 2.3125 -4.203125 C 2.6875 -4.203125 3.007812 -4.140625 3.28125 -4.015625 C 3.5625 -3.890625 3.773438 -3.710938 3.921875 -3.484375 C 4.066406 -3.253906 4.140625 -2.984375 4.140625 -2.671875 C 4.140625 -2.367188 4.066406 -2.101562 3.921875 -1.875 C 3.773438 -1.644531 3.5625 -1.46875 3.28125 -1.34375 C 3.007812 -1.21875 2.6875 -1.15625 2.3125 -1.15625 L 1.46875 -1.15625 L 1.46875 0 L 0.5 0 L 0.5 -4.203125 Z M 2.265625 -1.953125 C 2.554688 -1.953125 2.773438 -2.015625 2.921875 -2.140625 C 3.078125 -2.265625 3.15625 -2.441406 3.15625 -2.671875 C 3.15625 -2.910156 3.078125 -3.09375 2.921875 -3.21875 C 2.773438 -3.34375 2.554688 -3.40625 2.265625 -3.40625 L 1.46875 -3.40625 L 1.46875 -1.953125 Z M 2.265625 -1.953125 "/></g></g></g><g fill="#545454" fill-opacity="1"><g transform="translate(67.193148, 241.082676)"><g><path d="M 4.34375 -4.203125 L 4.34375 0 L 3.375 0 L 3.375 -1.71875 L 1.46875 -1.71875 L 1.46875 0 L 0.5 0 L 0.5 -4.203125 L 1.46875 -4.203125 L 1.46875 -2.546875 L 3.375 -2.546875 L 3.375 -4.203125 Z M 4.34375 -4.203125 "/></g></g></g><g fill="#545454" fill-opacity="1"><g transform="translate(74.141396, 241.082676)"><g><path d="M 2.53125 0.078125 C 2.09375 0.078125 1.695312 -0.015625 1.34375 -0.203125 C 1 -0.390625 0.726562 -0.648438 0.53125 -0.984375 C 0.332031 -1.316406 0.234375 -1.6875 0.234375 -2.09375 C 0.234375 -2.507812 0.332031 -2.878906 0.53125 -3.203125 C 0.726562 -3.535156 1 -3.796875 1.34375 -3.984375 C 1.695312 -4.171875 2.09375 -4.265625 2.53125 -4.265625 C 2.96875 -4.265625 3.359375 -4.171875 3.703125 -3.984375 C 4.054688 -3.796875 4.332031 -3.535156 4.53125 -3.203125 C 4.726562 -2.878906 4.828125 -2.507812 4.828125 -2.09375 C 4.828125 -1.6875 4.726562 -1.316406 4.53125 -0.984375 C 4.332031 -0.648438 4.054688 -0.390625 3.703125 -0.203125 C 3.359375 -0.015625 2.96875 0.078125 2.53125 0.078125 Z M 2.53125 -0.75 C 2.78125 -0.75 3.003906 -0.804688 3.203125 -0.921875 C 3.398438 -1.035156 3.554688 -1.191406 3.671875 -1.390625 C 3.785156 -1.597656 3.84375 -1.832031 3.84375 -2.09375 C 3.84375 -2.351562 3.785156 -2.585938 3.671875 -2.796875 C 3.554688 -3.003906 3.398438 -3.160156 3.203125 -3.265625 C 3.003906 -3.378906 2.78125 -3.4375 2.53125 -3.4375 C 2.28125 -3.4375 2.054688 -3.378906 1.859375 -3.265625 C 1.660156 -3.160156 1.503906 -3.003906 1.390625 -2.796875 C 1.273438 -2.585938 1.21875 -2.351562 1.21875 -2.09375 C 1.21875 -1.832031 1.273438 -1.597656 1.390625 -1.390625 C 1.503906 -1.191406 1.660156 -1.035156 1.859375 -0.921875 C 2.054688 -0.804688 2.28125 -0.75 2.53125 -0.75 Z M 2.53125 -0.75 "/></g></g></g><g fill="#545454" fill-opacity="1"><g transform="translate(81.305645, 241.082676)"><g><path d="M 1.375 -3.40625 L 0.03125 -3.40625 L 0.03125 -4.203125 L 3.6875 -4.203125 L 3.6875 -3.40625 L 2.34375 -3.40625 L 2.34375 0 L 1.375 0 Z M 1.375 -3.40625 "/></g></g></g><g fill="#545454" fill-opacity="1"><g transform="translate(87.113844, 241.082676)"><g><path d="M 2.53125 0.078125 C 2.09375 0.078125 1.695312 -0.015625 1.34375 -0.203125 C 1 -0.390625 0.726562 -0.648438 0.53125 -0.984375 C 0.332031 -1.316406 0.234375 -1.6875 0.234375 -2.09375 C 0.234375 -2.507812 0.332031 -2.878906 0.53125 -3.203125 C 0.726562 -3.535156 1 -3.796875 1.34375 -3.984375 C 1.695312 -4.171875 2.09375 -4.265625 2.53125 -4.265625 C 2.96875 -4.265625 3.359375 -4.171875 3.703125 -3.984375 C 4.054688 -3.796875 4.332031 -3.535156 4.53125 -3.203125 C 4.726562 -2.878906 4.828125 -2.507812 4.828125 -2.09375 C 4.828125 -1.6875 4.726562 -1.316406 4.53125 -0.984375 C 4.332031 -0.648438 4.054688 -0.390625 3.703125 -0.203125 C 3.359375 -0.015625 2.96875 0.078125 2.53125 0.078125 Z M 2.53125 -0.75 C 2.78125 -0.75 3.003906 -0.804688 3.203125 -0.921875 C 3.398438 -1.035156 3.554688 -1.191406 3.671875 -1.390625 C 3.785156 -1.597656 3.84375 -1.832031 3.84375 -2.09375 C 3.84375 -2.351562 3.785156 -2.585938 3.671875 -2.796875 C 3.554688 -3.003906 3.398438 -3.160156 3.203125 -3.265625 C 3.003906 -3.378906 2.78125 -3.4375 2.53125 -3.4375 C 2.28125 -3.4375 2.054688 -3.378906 1.859375 -3.265625 C 1.660156 -3.160156 1.503906 -3.003906 1.390625 -2.796875 C 1.273438 -2.585938 1.21875 -2.351562 1.21875 -2.09375 C 1.21875 -1.832031 1.273438 -1.597656 1.390625 -1.390625 C 1.503906 -1.191406 1.660156 -1.035156 1.859375 -0.921875 C 2.054688 -0.804688 2.28125 -0.75 2.53125 -0.75 Z M 2.53125 -0.75 "/></g></g></g><g fill="#545454" fill-opacity="1"><g transform="translate(94.278094, 241.082676)"><g><path d="M 3.34375 -2.171875 L 4.21875 -2.171875 L 4.21875 -0.46875 C 3.988281 -0.289062 3.722656 -0.15625 3.421875 -0.0625 C 3.128906 0.03125 2.832031 0.078125 2.53125 0.078125 C 2.09375 0.078125 1.695312 -0.015625 1.34375 -0.203125 C 1 -0.390625 0.726562 -0.644531 0.53125 -0.96875 C 0.332031 -1.300781 0.234375 -1.675781 0.234375 -2.09375 C 0.234375 -2.507812 0.332031 -2.882812 0.53125 -3.21875 C 0.726562 -3.550781 1.003906 -3.804688 1.359375 -3.984375 C 1.710938 -4.171875 2.109375 -4.265625 2.546875 -4.265625 C 2.910156 -4.265625 3.242188 -4.203125 3.546875 -4.078125 C 3.847656 -3.960938 4.097656 -3.785156 4.296875 -3.546875 L 3.671875 -2.96875 C 3.378906 -3.28125 3.019531 -3.4375 2.59375 -3.4375 C 2.320312 -3.4375 2.082031 -3.378906 1.875 -3.265625 C 1.664062 -3.160156 1.503906 -3.003906 1.390625 -2.796875 C 1.273438 -2.597656 1.21875 -2.363281 1.21875 -2.09375 C 1.21875 -1.832031 1.273438 -1.597656 1.390625 -1.390625 C 1.503906 -1.191406 1.664062 -1.035156 1.875 -0.921875 C 2.082031 -0.804688 2.316406 -0.75 2.578125 -0.75 C 2.859375 -0.75 3.113281 -0.8125 3.34375 -0.9375 Z M 3.34375 -2.171875 "/></g></g></g><g fill="#545454" fill-opacity="1"><g transform="translate(101.004326, 241.082676)"><g><path d="M 3.171875 0 L 2.359375 -1.171875 L 1.46875 -1.171875 L 1.46875 0 L 0.5 0 L 0.5 -4.203125 L 2.3125 -4.203125 C 2.6875 -4.203125 3.007812 -4.140625 3.28125 -4.015625 C 3.5625 -3.890625 3.773438 -3.710938 3.921875 -3.484375 C 4.066406 -3.253906 4.140625 -2.984375 4.140625 -2.671875 C 4.140625 -2.359375 4.0625 -2.085938 3.90625 -1.859375 C 3.757812 -1.640625 3.550781 -1.46875 3.28125 -1.34375 L 4.21875 0 Z M 3.15625 -2.671875 C 3.15625 -2.910156 3.078125 -3.09375 2.921875 -3.21875 C 2.773438 -3.34375 2.554688 -3.40625 2.265625 -3.40625 L 1.46875 -3.40625 L 1.46875 -1.9375 L 2.265625 -1.9375 C 2.554688 -1.9375 2.773438 -2 2.921875 -2.125 C 3.078125 -2.257812 3.15625 -2.441406 3.15625 -2.671875 Z M 3.15625 -2.671875 "/></g></g></g><g fill="#545454" fill-opacity="1"><g transform="translate(107.514555, 241.082676)"><g><path d="M 3.265625 -0.90625 L 1.3125 -0.90625 L 0.9375 0 L -0.046875 0 L 1.8125 -4.203125 L 2.78125 -4.203125 L 4.65625 0 L 3.640625 0 Z M 2.953125 -1.640625 L 2.296875 -3.25 L 1.625 -1.640625 Z M 2.953125 -1.640625 "/></g></g></g><g fill="#545454" fill-opacity="1"><g transform="translate(114.210787, 241.082676)"><g><path d="M 2.3125 -4.203125 C 2.6875 -4.203125 3.007812 -4.140625 3.28125 -4.015625 C 3.5625 -3.890625 3.773438 -3.710938 3.921875 -3.484375 C 4.066406 -3.253906 4.140625 -2.984375 4.140625 -2.671875 C 4.140625 -2.367188 4.066406 -2.101562 3.921875 -1.875 C 3.773438 -1.644531 3.5625 -1.46875 3.28125 -1.34375 C 3.007812 -1.21875 2.6875 -1.15625 2.3125 -1.15625 L 1.46875 -1.15625 L 1.46875 0 L 0.5 0 L 0.5 -4.203125 Z M 2.265625 -1.953125 C 2.554688 -1.953125 2.773438 -2.015625 2.921875 -2.140625 C 3.078125 -2.265625 3.15625 -2.441406 3.15625 -2.671875 C 3.15625 -2.910156 3.078125 -3.09375 2.921875 -3.21875 C 2.773438 -3.34375 2.554688 -3.40625 2.265625 -3.40625 L 1.46875 -3.40625 L 1.46875 -1.953125 Z M 2.265625 -1.953125 "/></g></g></g><g fill="#545454" fill-opacity="1"><g transform="translate(120.70301, 241.082676)"><g><path d="M 4.34375 -4.203125 L 4.34375 0 L 3.375 0 L 3.375 -1.71875 L 1.46875 -1.71875 L 1.46875 0 L 0.5 0 L 0.5 -4.203125 L 1.46875 -4.203125 L 1.46875 -2.546875 L 3.375 -2.546875 L 3.375 -4.203125 Z M 4.34375 -4.203125 "/></g></g></g><g fill="#545454" fill-opacity="1"><g transform="translate(127.651256, 241.082676)"><g><path d="M 3.75 -0.78125 L 3.75 0 L 0.5 0 L 0.5 -4.203125 L 3.671875 -4.203125 L 3.671875 -3.421875 L 1.46875 -3.421875 L 1.46875 -2.515625 L 3.40625 -2.515625 L 3.40625 -1.75 L 1.46875 -1.75 L 1.46875 -0.78125 Z M 3.75 -0.78125 "/></g></g></g><g fill="#545454" fill-opacity="1"><g transform="translate(133.777471, 241.082676)"><g><path d="M 3.171875 0 L 2.359375 -1.171875 L 1.46875 -1.171875 L 1.46875 0 L 0.5 0 L 0.5 -4.203125 L 2.3125 -4.203125 C 2.6875 -4.203125 3.007812 -4.140625 3.28125 -4.015625 C 3.5625 -3.890625 3.773438 -3.710938 3.921875 -3.484375 C 4.066406 -3.253906 4.140625 -2.984375 4.140625 -2.671875 C 4.140625 -2.359375 4.0625 -2.085938 3.90625 -1.859375 C 3.757812 -1.640625 3.550781 -1.46875 3.28125 -1.34375 L 4.21875 0 Z M 3.15625 -2.671875 C 3.15625 -2.910156 3.078125 -3.09375 2.921875 -3.21875 C 2.773438 -3.34375 2.554688 -3.40625 2.265625 -3.40625 L 1.46875 -3.40625 L 1.46875 -1.9375 L 2.265625 -1.9375 C 2.554688 -1.9375 2.773438 -2 2.921875 -2.125 C 3.078125 -2.257812 3.15625 -2.441406 3.15625 -2.671875 Z M 3.15625 -2.671875 "/></g></g></g><g fill="#545454" fill-opacity="1"><g transform="translate(140.287701, 241.082676)"><g><path d="M 1.875 0.078125 C 1.539062 0.078125 1.21875 0.03125 0.90625 -0.0625 C 0.601562 -0.15625 0.359375 -0.269531 0.171875 -0.40625 L 0.5 -1.140625 C 0.675781 -1.015625 0.890625 -0.910156 1.140625 -0.828125 C 1.390625 -0.742188 1.640625 -0.703125 1.890625 -0.703125 C 2.160156 -0.703125 2.359375 -0.742188 2.484375 -0.828125 C 2.617188 -0.910156 2.6875 -1.019531 2.6875 -1.15625 C 2.6875 -1.257812 2.644531 -1.34375 2.5625 -1.40625 C 2.488281 -1.46875 2.390625 -1.519531 2.265625 -1.5625 C 2.148438 -1.601562 1.988281 -1.648438 1.78125 -1.703125 C 1.457031 -1.773438 1.191406 -1.847656 0.984375 -1.921875 C 0.785156 -2.003906 0.613281 -2.128906 0.46875 -2.296875 C 0.320312 -2.460938 0.25 -2.6875 0.25 -2.96875 C 0.25 -3.207031 0.3125 -3.425781 0.4375 -3.625 C 0.570312 -3.820312 0.773438 -3.976562 1.046875 -4.09375 C 1.316406 -4.207031 1.640625 -4.265625 2.015625 -4.265625 C 2.285156 -4.265625 2.546875 -4.234375 2.796875 -4.171875 C 3.054688 -4.109375 3.285156 -4.019531 3.484375 -3.90625 L 3.1875 -3.15625 C 2.789062 -3.375 2.398438 -3.484375 2.015625 -3.484375 C 1.742188 -3.484375 1.539062 -3.441406 1.40625 -3.359375 C 1.28125 -3.273438 1.21875 -3.160156 1.21875 -3.015625 C 1.21875 -2.867188 1.289062 -2.757812 1.4375 -2.6875 C 1.59375 -2.625 1.820312 -2.554688 2.125 -2.484375 C 2.445312 -2.410156 2.707031 -2.332031 2.90625 -2.25 C 3.113281 -2.175781 3.289062 -2.054688 3.4375 -1.890625 C 3.582031 -1.734375 3.65625 -1.515625 3.65625 -1.234375 C 3.65625 -0.992188 3.585938 -0.773438 3.453125 -0.578125 C 3.328125 -0.378906 3.128906 -0.21875 2.859375 -0.09375 C 2.585938 0.0195312 2.257812 0.078125 1.875 0.078125 Z M 1.875 0.078125 "/></g></g></g></svg>